PathFileType  4	(X/Y/Z) C:\Users\antoi\Documents\MyRepositories\mobilecap\ResultsAnalysis
DataRate	CameraRate	NumFrames	NumMarkers	Units	OrigDataRate	OrigDataStartFrame	OrigNumFrames
100.0	100.0	5	51	mm	100.0	127	145
Frame#	Time	r_knee			r_shank_antsup			r_ankle			r_calc			r_5meta			r_toe			L_knee			L_shank_antsup			L_ankle			L_calc			L_5meta			L_toe			r_sh2			r_sh3			r_sh4			L_sh2			L_sh3			r_thigh1			r_thigh2			r_thigh3			r_thigh4			r_thigh5			L_thigh1			L_thigh2			L_thigh3			L_thigh4			r.ASIS			r.PSIS			L.ASIS			L.PSIS			C7			R_Shoulder			L_Shoulder			R_Sternum			L_Sternum			R_humerus			R_elbow_med			R_elbow_lat			R_forearm			R_wrist_radius			R_wrist_ulna			L_humerus			L_elbow_med			L_elbow_lat			L_forearm			L_wrist_radius			L_wrist_ulna			R_HJC			L_HJC			R_HJC_reg			L_HJC_reg			
		X1	Y1	Z1	X2	Y2	Z2	X3	Y3	Z3	X4	Y4	Z4	X5	Y5	Z5	X6	Y6	Z6	X7	Y7	Z7	X8	Y8	Z8	X9	Y9	Z9	X10	Y10	Z10	X11	Y11	Z11	X12	Y12	Z12	X13	Y13	Z13	X14	Y14	Z14	X15	Y15	Z15	X16	Y16	Z16	X17	Y17	Z17	X18	Y18	Z18	X19	Y19	Z19	X20	Y20	Z20	X21	Y21	Z21	X22	Y22	Z22	X23	Y23	Z23	X24	Y24	Z24	X25	Y25	Z25	X26	Y26	Z26	X27	Y27	Z27	X28	Y28	Z28	X29	Y29	Z29	X30	Y30	Z30	X31	Y31	Z31	X32	Y32	Z32	X33	Y33	Z33	X34	Y34	Z34	X35	Y35	Z35	X36	Y36	Z36	X37	Y37	Z37	X38	Y38	Z38	X39	Y39	Z39	X40	Y40	Z40	X41	Y41	Z41	X42	Y42	Z42	X43	Y43	Z43	X44	Y44	Z44	X45	Y45	Z45	X46	Y46	Z46	X47	Y47	Z47	X48	Y48	Z48	X49	Y49	Z49	X50	Y50	Z50	X51	Y51	Z51	

127	1.26000000	1411.78611	498.66484	-36.50246	1459.07584	441.27047	-66.62420	1463.54997	96.37746	-47.26362	1391.96600	63.44544	-63.90344	1576.53995	47.91194	-54.31419	1603.47473	82.52602	-119.63270	1121.70358	478.18776	-279.99302	1105.05528	373.76796	-278.54978	881.45326	154.19490	-248.77810	797.02337	152.11073	-214.28314	947.35477	44.32700	-263.09000	986.97894	54.26776	-201.47307	1466.48247	327.88777	-37.73788	1392.27498	440.02136	-16.37216	1397.18817	327.65980	-8.79948	1037.37316	431.47389	-290.59701	967.45996	330.39158	-290.28980	1368.40280	815.93202	-9.71743	1400.72364	706.51051	-21.58199	1362.61031	670.89148	19.47375	1270.47761	782.85348	34.05217	1304.84398	670.90345	20.37107	1204.24396	730.31090	-342.63305	1185.78929	596.80981	-310.87630	1102.89613	751.72134	-288.88110	1088.54937	613.93082	-267.11837	1339.27984	958.91951	-49.28111	1138.90181	988.40691	-87.25286	1299.34370	927.80865	-296.31770	1114.49682	987.30265	-185.16853	1128.11403	1401.43653	-167.08412	1241.94799	1365.51467	4.28017	1197.61485	1366.02144	-350.11642	1269.81556	1367.70926	-156.54809	1272.47443	1367.09628	-198.21353	1253.70353	1236.27368	75.37907	1179.34881	1026.00339	64.59065	1208.63397	1048.22096	125.95298	1288.55522	928.53384	128.50073	1327.97450	801.45122	134.48606	1315.20169	796.91249	167.50739	1230.38440	1257.50689	-414.08884	1178.70339	1021.10993	-400.58771	1223.65145	1050.16534	-459.68786	1296.75233	959.20815	-434.68853	1351.97276	812.65668	-432.63208	1342.54208	810.05387	-465.39055	1263.39231	876.32999	-49.41298	1222.86471	858.66163	-251.09489	1272.11844	868.37158	-66.89864	1231.86919	866.54953	-228.38260	
128	1.27000000	1423.09289	498.87813	-36.87711	1468.76705	440.16129	-67.52120	1465.52532	95.48617	-47.91513	1393.02653	64.13630	-64.31673	1577.62829	45.50758	-54.70009	1605.16530	78.78910	-120.61147	1140.26081	476.53495	-281.14320	1120.94569	373.11301	-280.83820	890.51255	160.97915	-249.63765	807.24996	164.17214	-214.02971	949.22748	45.82452	-262.97126	990.24514	53.88951	-201.89450	1474.41081	326.68906	-38.63061	1402.67924	440.22530	-16.50007	1405.51363	327.88985	-8.74897	1055.03491	433.10333	-290.98043	981.78630	334.71346	-290.50869	1382.05229	816.87661	-9.50882	1413.71157	707.27459	-21.70088	1375.83073	671.89853	19.70456	1284.32080	784.24982	35.05323	1318.05577	672.07243	21.25648	1218.85443	730.34694	-341.65748	1203.04175	596.18028	-311.49708	1117.61020	749.39528	-286.85932	1106.12710	611.32877	-266.01540	1352.94077	960.13635	-48.58665	1152.45571	989.29331	-86.23168	1312.46010	928.45630	-295.37719	1127.88473	987.70613	-184.09830	1141.30468	1401.83152	-165.41465	1255.79324	1365.84280	5.56341	1210.26928	1366.81696	-348.64056	1283.11007	1368.29525	-155.21525	1285.51080	1367.75940	-196.89430	1267.34203	1236.50352	76.58072	1191.87253	1026.71846	65.58564	1221.37111	1048.63589	127.00931	1300.38508	928.34901	129.42392	1338.73794	800.90977	135.31429	1326.07356	796.51685	168.35057	1243.04052	1258.26154	-412.52904	1190.80046	1021.95315	-398.93048	1235.92632	1050.82322	-458.00363	1308.80870	959.88033	-432.56683	1364.29048	813.48576	-429.94438	1354.96929	810.79913	-462.73169	1277.20535	877.44798	-48.34975	1236.28782	859.21582	-249.90367	1285.76882	869.78832	-65.67904	1245.25828	867.16992	-227.03098	
129	1.28000000	1434.17452	499.18000	-37.24184	1478.12397	439.06761	-68.27757	1466.90192	94.85623	-48.50769	1393.71551	64.59929	-64.62909	1578.35403	43.92378	-54.81704	1606.29660	75.94083	-121.34696	1159.82354	474.66698	-282.85481	1137.90532	372.50826	-283.66885	900.95599	168.02712	-250.70057	819.43088	177.06064	-213.97667	951.36204	47.83116	-262.82961	993.88476	53.80062	-202.46170	1481.90150	325.57037	-39.39174	1412.76380	440.53781	-16.62371	1413.35970	328.22995	-8.76790	1073.88046	434.76110	-291.73612	997.36043	339.18856	-291.02893	1395.75439	817.95102	-9.13394	1426.67197	708.14029	-21.61739	1388.98137	673.01535	20.06780	1298.18139	785.79488	36.17278	1331.20148	673.37224	22.20984	1233.99638	730.28249	-340.81071	1221.18787	595.46652	-312.48182	1132.90390	746.64905	-285.00006	1124.55171	608.26716	-265.42722	1366.48416	961.46134	-47.73129	1165.88090	990.19125	-85.19351	1325.58195	929.16664	-294.28059	1141.16661	988.11732	-183.01629	1154.40830	1402.31326	-163.79310	1269.64085	1366.23924	6.75513	1222.80421	1367.65200	-347.20132	1296.34189	1368.92879	-153.94097	1298.42908	1368.46795	-195.64518	1281.05467	1236.81482	77.70808	1204.52604	1027.50163	66.63298	1234.34995	1049.14406	128.13401	1312.49659	928.30042	130.25231	1349.85532	800.51893	135.96134	1337.34644	796.27254	169.05091	1255.54866	1259.04138	-411.02743	1202.67383	1022.83958	-397.25182	1247.92649	1051.50636	-456.34664	1320.45933	960.48671	-430.57488	1376.10116	814.18354	-427.46850	1366.91336	811.48058	-460.29631	1290.90714	878.64576	-47.16643	1249.72548	859.80606	-248.61099	1299.37063	871.26423	-64.32210	1258.63864	867.84446	-225.54243	
130	1.29000000	1444.88012	499.48713	-37.53097	1487.10510	437.93503	-68.78857	1467.82543	94.44615	-49.05643	1394.12765	64.87799	-64.83700	1578.80993	42.97747	-54.71021	1606.99645	73.84909	-121.84526	1180.34906	472.65680	-285.07825	1155.89119	371.92803	-286.91490	912.80212	175.24240	-251.98007	833.72893	190.60540	-214.15989	953.75692	50.46198	-262.60951	997.94840	54.14746	-203.25483	1488.91349	324.47411	-39.94614	1422.44167	440.86722	-16.66410	1420.66657	328.58881	-8.82150	1093.89308	436.42859	-292.82060	1014.18274	343.72988	-291.81432	1409.36600	818.99489	-8.61320	1439.44966	708.97547	-21.30932	1401.86368	674.11811	20.57570	1311.91359	787.41940	37.41633	1344.09331	674.73410	23.23282	1249.59776	730.10360	-340.14743	1240.05343	594.68335	-313.80860	1148.72824	743.54619	-283.29931	1143.67359	604.82626	-265.39271	1379.90119	962.87113	-46.71890	1179.14340	991.08154	-84.17916	1338.67440	929.90205	-293.01869	1154.29682	988.49414	-181.96694	1167.39774	1402.86219	-162.24660	1283.43658	1366.68333	7.83677	1235.21479	1368.49124	-345.82275	1309.47946	1369.58514	-152.75000	1311.20406	1369.19413	-194.49396	1294.82137	1237.18655	78.72938	1217.30177	1028.31340	67.73027	1247.55637	1049.71153	129.29358	1324.90668	928.37537	130.97370	1361.33733	800.24837	136.41807	1349.04376	796.15525	169.60534	1267.89027	1259.80776	-409.60089	1214.32771	1023.73453	-395.55985	1259.66331	1052.18111	-454.72309	1331.72723	960.99029	-428.71304	1387.39656	814.69603	-425.21343	1378.37508	812.05044	-458.10151	1304.46105	879.90606	-45.87017	1263.15411	860.39102	-247.22401	1312.90444	872.80155	-62.80354	1271.97569	868.53848	-223.88320	
131	1.30000000	1455.05896	499.69621	-37.67266	1495.68576	436.72077	-68.98684	1468.44513	94.19033	-49.59065	1394.35744	65.03467	-64.94652	1579.09630	42.47076	-54.45611	1607.40449	72.34977	-122.14741	1201.75792	470.59877	-287.69852	1174.84048	371.37199	-290.41660	926.01597	182.53083	-253.48402	850.20562	204.55886	-214.57705	956.47430	53.83164	-262.25733	1002.54655	55.07271	-204.35125	1495.41743	323.33761	-40.24628	1431.64073	441.11874	-16.55085	1427.41135	328.87751	-8.85176	1115.02435	438.09834	-294.16763	1032.22506	348.27622	-292.79569	1422.76246	819.86089	-7.92143	1451.89488	709.64036	-20.74390	1414.28870	675.07561	21.25230	1325.35362	789.02301	38.75915	1356.54718	676.05905	24.32440	1265.53645	729.81514	-339.70567	1259.42912	593.87371	-315.41384	1164.99174	740.20003	-281.74343	1163.30691	601.13883	-265.88624	1393.18939	964.33219	-45.58011	1192.22775	991.94514	-83.22907	1351.69606	930.62133	-291.61205	1167.23797	988.80021	-180.99266	1180.24803	1403.45545	-160.79910	1297.12663	1367.16300	8.79567	1247.49331	1369.30983	-344.53756	1322.49852	1370.24919	-151.66955	1323.82655	1369.91441	-193.46908	1308.61642	1237.60599	79.61858	1230.19384	1029.12360	68.86444	1260.96382	1050.30712	130.44060	1337.62412	928.56410	131.57562	1373.21338	800.09439	136.69296	1361.18967	796.15489	170.01308	1280.04297	1260.53147	-408.27062	1225.76134	1024.61088	-393.86902	1271.13828	1052.81578	-453.14507	1342.65609	961.37096	-426.98298	1398.19253	814.99780	-423.18272	1389.35899	812.46840	-456.15039	1317.84262	881.20356	-44.48881	1276.54057	860.93061	-245.76703	1326.35887	874.39246	-61.12539	1285.22585	869.21645	-222.04390	
